<svg xmlns="http://www.w3.org/2000/svg" width="1200" height="675" viewBox="0 0 1200 675" role="img" aria-labelledby="title desc">
  <title id="title">Citizen service visual template</title>
  <desc id="desc">Abstract mobile service card and secure handoff symbol without depicting a real portal.</desc>
  <defs><linearGradient id="bg" x1="0" y1="0" x2="1" y2="1"><stop stop-color="#082b4f"/><stop offset="1" stop-color="#075f72"/></linearGradient></defs>
  <rect width="1200" height="675" rx="38" fill="url(#bg)"/><circle cx="205" cy="560" r="260" fill="#0ea59a" opacity=".17"/>
  <rect x="385" y="60" width="430" height="555" rx="62" fill="#fff"/><rect x="525" y="92" width="150" height="16" rx="8" fill="#c7d6e3"/>
  <rect x="450" y="155" width="300" height="170" rx="28" fill="#dff7f4"/><circle cx="600" cy="240" r="54" fill="#0ea59a"/><path d="M575 241h50M600 216v50" stroke="#fff" stroke-width="18" stroke-linecap="round"/>
  <rect x="450" y="375" width="300" height="24" rx="12" fill="#d7e6f2"/><rect x="450" y="435" width="230" height="24" rx="12" fill="#d7e6f2"/><rect x="500" y="510" width="200" height="56" rx="28" fill="#f5a623"/>
  <path d="M880 330c86 0 156 70 156 156H880z" fill="#63d5ca" opacity=".55"/>
</svg>
